:SAMPLES-PER-SECOND 30
:FRAME-RANGE 1-4244
:FULLY-SPECIFIED
:DEGREES
2918
root  -10.0763 39.618 -83.606 5.52417 71.6133 5.30047
RightUpLeg  3.53969 -7.47837 -2.95166
RightLeg  11.0248 -3.27131 0.506758
RightFoot  -16.0116 0.0695445 4.36539
RightToes  -3.31784e-009 0 -3.6325e-017
Spine  9.63283 -0.153056 8.46164
Spine1  -0.423426 0.570339 -1.1105
HEad  1.76217 -32.7808 1.05267
LeftShoulder1  1.27806 -0.133082 -29.0583
LeftArm  15.0771 13.4751 -31.4807
LeftForeArm  1.61951 -12.5612 -13.4816
LeftHand  0.379687 -1.15112 -6.65615
RightShoulder  8.13059 12.1053 45.5541
RightArm  21.293 5.09637 15.3074
RightForeArm  5.17806 14.9084 11.095
RightHand  0.502028 4.88652 5.35971
LeftUpLeg  -23.2279 16.9195 -0.0418852
LeftLeg  19.7074 1.00529 0.719369
LeftFoot  -0.459684 1.04316 -10.8996
LeftToes  1.0277e-010 -6.71454e-011 3.04227e-011
2919
root  -8.76171 39.5759 -83.4521 5.50226 70.7744 4.79625
RightUpLeg  6.65686 -7.56202 -3.72135
RightLeg  7.9059 -2.07061 0.810483
RightFoot  -16.2915 0.115104 5.21582
RightToes  -3.31784e-009 0 -3.6325e-017
Spine  9.15591 0.0981319 8.25332
Spine1  -0.256566 0.853787 -1.87725
HEad  1.53959 -32.7027 1.03958
LeftShoulder1  1.2541 -0.0584366 -29.1222
LeftArm  13.2289 14.4118 -29.9604
LeftForeArm  2.45454 -10.7872 -14.5586
LeftHand  0.39056 -1.12424 -6.88068
RightShoulder  8.80304 13.5829 45.0235
RightArm  19.2361 6.24709 15.7867
RightForeArm  7.97602 14.0897 11.4851
RightHand  0.512265 5.22389 5.27989
LeftUpLeg  -21.3659 9.99076 3.45379
LeftLeg  5.36588 8.09581 -2.16608
LeftFoot  0.215653 1.151 -11.3596
LeftToes  1.0277e-010 -6.71454e-011 3.04227e-011
2920
root  -7.31949 39.3677 -83.3225 4.25623 69.7979 3.45936
RightUpLeg  9.7939 -7.70513 -4.41894
RightLeg  6.09257 -0.665462 0.84541
RightFoot  -17.2707 0.1973 6.06699
RightToes  -3.31784e-009 0 -3.6325e-017
Spine  8.87032 0.325014 8.23621
Spine1  -0.081045 1.09448 -2.27475
HEad  1.28723 -32.4681 1.13748
LeftShoulder1  1.20673 0.0468298 -28.8164
LeftArm  10.7816 16.0453 -28.5041
LeftForeArm  3.63881 -8.9616 -15.4286
LeftHand  0.411202 -1.04675 -7.34505
RightShoulder  9.32917 14.6855 44.8014
RightArm  18.8349 7.47904 15.8342
RightForeArm  9.03206 13.4951 11.8891
RightHand  0.527185 5.24962 5.42766
LeftUpLeg  -20.7122 6.12349 5.52668
LeftLeg  -4.69797 10.5002 -3.3048
LeftFoot  -0.381916 1.05353 -10.9345
LeftToes  1.0277e-010 -6.71454e-011 3.04227e-011
2921
root  -5.78066 39.0598 -83.2052 3.20337 69.1095 2.41093
RightUpLeg  12.7661 -7.9417 -5.32435
RightLeg  5.21933 0.659696 0.697909
RightFoot  -18.632 0.338562 7.29084
RightToes  -3.31784e-009 0 -3.6325e-017
Spine  8.93017 0.430465 7.80365
Spine1  -0.163471 1.21345 -2.28333
HEad  1.00925 -32.3251 1.67104
LeftShoulder1  1.15244 0.14054 -28.1588
LeftArm  9.27353 17.9299 -27.1217
LeftForeArm  4.15416 -7.18025 -16.213
LeftHand  0.422591 -0.900963 -7.7426
RightShoulder  9.79723 15.5529 44.9021
RightArm  18.3278 8.11501 15.6189
RightForeArm  10.113 13.0077 12.1854
RightHand  0.523003 5.21871 5.39983
LeftUpLeg  -22.1308 6.1524 6.00373
LeftLeg  -6.31664 10.4857 -3.33561
LeftFoot  -0.813029 1.02117 -11.0059
LeftToes  1.0277e-010 -6.71454e-011 3.04227e-011
2922
root  -4.11741 38.6816 -83.1299 3.39252 68.9087 2.88006
RightUpLeg  15.4732 -8.55608 -7.13072
RightLeg  5.81064 2.36237 0.462834
RightFoot  -20.3211 0.580984 9.14028
RightToes  -3.31784e-009 0 -3.6325e-017
Spine  9.09988 0.537743 6.65115
Spine1  -0.38724 1.17885 -1.89354
HEad  0.894749 -32.5932 2.47855
LeftShoulder1  1.10384 0.204777 -27.3296
LeftArm  8.77269 19.3305 -25.8158
LeftForeArm  4.11872 -5.34174 -16.9839
LeftHand  0.408278 -0.452676 -8.10876
RightShoulder  9.862 15.5803 45.1439
RightArm  17.3093 8.24894 15.361
RightForeArm  11.2954 12.6067 12.3432
RightHand  0.505872 5.18433 5.23221
LeftUpLeg  -23.6773 6.34944 5.38649
LeftLeg  -1.84145 12.4995 -2.94236
LeftFoot  0.585023 0.932739 -8.95193
LeftToes  1.0277e-010 -6.71454e-011 3.04227e-011
2923
root  -2.27883 38.3449 -83.0789 4.39948 68.3515 4.35135
RightUpLeg  18.0045 -9.28469 -9.73615
RightLeg  7.2805 4.83758 0.0546164
RightFoot  -21.2426 0.876947 11.7562
RightToes  -3.31784e-009 0 -3.6325e-017
Spine  8.79099 0.869017 5.46409
Spine1  -0.114862 1.47607 -1.99122
HEad  1.16148 -33.2518 3.21288
LeftShoulder1  1.06556 0.25672 -26.6646
LeftArm  8.51429 20.5415 -24.2965
LeftForeArm  4.26023 -3.81449 -17.5182
LeftHand  0.407305 -0.217599 -8.4602
RightShoulder  9.45598 14.5734 45.7303
RightArm  17.1114 7.79188 14.9447
RightForeArm  11.1612 12.6737 12.2931
RightHand  0.46394 5.09565 4.81949
LeftUpLeg  -25.3259 7.83323 3.22723
LeftLeg  6.41041 11.7878 -0.761353
LeftFoot  1.77284 0.834094 -7.34439
LeftToes  1.0277e-010 -6.71454e-011 3.04227e-011
2924
root  -0.369547 38.1811 -83.0566 5.80463 66.9583 6.35022
RightUpLeg  20.02 -9.07653 -12.6399
RightLeg  9.10484 7.74366 -0.679362
RightFoot  -20.37 1.10998 15.7282
RightToes  -3.31784e-009 0 -3.6325e-017
Spine  8.58651 1.27739 3.81553
Spine1  0.145971 1.90617 -2.51954
HEad  1.77553 -33.4651 3.65191
LeftShoulder1  0.973495 0.514413 -26.4013
LeftArm  9.04514 22.5115 -22.5171
LeftForeArm  3.0798 -3.58167 -17.7044
LeftHand  0.386017 0.119735 -8.58069
RightShoulder  9.03314 13.4602 46.5895
RightArm  19.6122 6.33264 14.4171
RightForeArm  8.22844 13.7199 11.8305
RightHand  0.439004 4.82958 4.67979
LeftUpLeg  -25.2485 10.2051 0.738926
LeftLeg  10.9522 10.6646 0.777822
LeftFoot  7.44901 0.768845 -4.91991
LeftToes  1.0277e-010 -6.71454e-011 3.04227e-011
